<svg id="Layer_1_1_" fill="#ffff" enable-background="new 0 0 0 0" height="512" viewBox="0 0 64 64" width="512" xmlns="http://www.w3.org/2000/svg"><path d="m17 62h30c3.309 0 6-2.691 6-6v-48c0-3.309-2.691-6-6-6h-30c-3.309 0-6 2.691-6 6v48c0 3.309 2.691 6 6 6zm-4-54c0-2.206 1.794-4 4-4h30c2.206 0 4 1.794 4 4v48c0 2.206-1.794 4-4 4h-30c-2.206 0-4-1.794-4-4z"/><path d="m19 58h26c2.206 0 4-1.794 4-4v-44c0-2.206-1.794-4-4-4h-26c-2.206 0-4 1.794-4 4v44c0 2.206 1.794 4 4 4zm-2-48c0-1.103.897-2 2-2h26c1.103 0 2 .897 2 2v44c0 1.103-.897 2-2 2h-26c-1.103 0-2-.897-2-2z"/><path d="m24.387 27h1.226c1.316 0 2.387-1.071 2.387-2.387 0-1.992 1.621-3.613 3.613-3.613h.887.001c.935 0 1.813.365 2.473 1.026.662.664 1.026 1.551 1.026 2.496 0 1.918-1.561 3.478-3.5 3.478h-.001c-1.201 0-2.331.468-3.18 1.317s-1.319 1.98-1.319 3.182v7.501c0 1.654 1.346 3 3 3s3-1.346 3-3v-6c4.411 0 8-3.589 8-8v-3c0-4.411-3.589-8-8-8h-4c-4.411 0-8 3.589-8 8v1.613c0 1.316 1.071 2.387 2.387 2.387zm-.387-4c0-3.309 2.691-6 6-6h4c3.309 0 6 2.691 6 6v3c0 3.309-2.691 6-6 6-1.103 0-2 .897-2 2v6c0 .551-.449 1-1 1s-1-.449-1-1v-7.501c0-.667.26-1.295.732-1.767s1.099-.732 1.789-.732c3.021 0 5.479-2.457 5.479-5.478 0-1.478-.572-2.866-1.609-3.907s-2.419-1.615-3.89-1.615c0 0 0 0-.001 0h-.888c-3.094 0-5.612 2.518-5.612 5.613 0 .213-.174.387-.387.387h-1.226c-.213 0-.387-.174-.387-.387z"/><path d="m32 45h-2c-1.103 0-2 .897-2 2v2c0 1.103.897 2 2 2h2c1.103 0 2-.897 2-2v-2c0-1.103-.897-2-2-2zm-2 4v-2h2l.001 2z"/></svg>