<svg width="65" height="53" viewBox="0 0 65 53" fill="none" xmlns="http://www.w3.org/2000/svg">
<path d="M55.0145 16.0939L55.0721 16.5282H55.5102H61.7478C63.2678 16.5282 64.5 17.7604 64.5 19.2804V49.634C64.5 51.154 63.2678 52.3862 61.7478 52.3862H14.0493C12.5293 52.3862 11.2971 51.154 11.2971 49.634V42.425V41.8548L10.7317 41.9293L7.5999 42.3424L7.59945 42.3424C7.48193 42.358 7.36389 42.366 7.24586 42.3663C5.86326 42.367 4.69469 41.3419 4.51537 39.9709L4.51525 39.9701L0.525925 9.8842L0.52556 9.88156C0.425975 9.16007 0.619882 8.42877 1.06399 7.85142L1.064 7.85143L1.06562 7.84929C1.5085 7.26712 2.16494 6.88528 2.88989 6.78793C2.89004 6.78791 2.89019 6.78789 2.89034 6.78787L50.1659 0.522471C50.1663 0.522419 50.1667 0.522367 50.1671 0.522315C51.6717 0.331839 53.0507 1.38432 53.264 2.88575C53.2641 2.88646 53.2642 2.88717 53.2643 2.88788L55.0145 16.0939ZM53.3236 16.5282H53.8944L53.8193 15.9624L53.6729 14.86L53.6071 14.3644L53.1116 14.4301L44.7925 15.5326L44.8582 16.5282H53.3236ZM3.04764 7.94416L3.04676 7.94428C2.62795 8.00053 2.24912 8.2218 1.99434 8.55863C1.73804 8.8894 1.62548 9.30906 1.68108 9.72335C1.68111 9.72354 1.68113 9.72373 1.68116 9.72392L2.10922 12.9577L2.17485 13.4535L2.67062 13.3877L52.1037 6.83242L52.5993 6.76669L52.5336 6.27101L52.1054 3.04269L52.1054 3.04268L52.1045 3.03641C51.9789 2.17377 51.1857 1.5705 50.3208 1.6801L50.318 1.68048L3.04764 7.94416ZM10.8625 40.7342L11.2971 40.6769V40.2385V20.5498V19.9794L10.7316 20.0541L3.68524 20.9854L3.18945 21.0509L3.25506 21.5466L5.66928 39.789V39.7896L5.6736 39.8217L5.67363 39.8224C5.78886 40.6896 6.58523 41.2993 7.45253 41.184L10.8625 40.7342ZM11.0056 18.8406L11.3261 18.7983L11.4191 18.4887C11.7681 17.3267 12.8369 16.5304 14.0502 16.5282H28.3589H28.3919L28.4246 16.5239L52.9557 13.2717L53.4517 13.206L53.3856 12.71L53.1451 10.9062L53.1449 10.905L52.8199 8.42155L52.7549 7.92493L52.2584 7.99078L2.82534 14.5472L2.32965 14.6129L2.39543 15.1086L2.96456 19.3971L3.03029 19.8924L3.52559 19.8271L11.0056 18.8406ZM61.7478 51.2181C62.6226 51.2181 63.3319 50.5088 63.3319 49.634V19.2804C63.3319 18.4056 62.6226 17.6964 61.7478 17.6964H14.0547C13.1961 17.6964 12.497 18.3795 12.4714 19.2319C12.4682 19.2528 12.4652 19.2806 12.4652 19.3129V49.634C12.4652 50.5088 13.1745 51.2181 14.0493 51.2181H61.7478ZM12.4829 19.1754L12.4821 19.1785L12.4829 19.1754Z" fill="url(#paint0_linear)" stroke="url(#paint1_linear)"/>
<path d="M49.1403 30.8724L48.7376 30.3303L48.3366 30.8737C48.0448 31.2692 47.6951 31.6188 47.2994 31.9109C45.1129 33.5244 42.0324 33.06 40.4188 30.8736C38.8052 28.687 39.2695 25.6066 41.456 23.993C43.6426 22.3794 46.723 22.8437 48.3366 25.0302L48.7397 25.5764L49.1418 25.0294C50.0623 23.7773 51.5221 23.036 53.0762 23.0316C54.6324 23.0295 56.0975 23.7649 57.0256 25.0141C58.6434 27.1916 58.1896 30.2683 56.0121 31.8859L56.0121 31.8859C53.8346 33.5037 50.7579 33.0499 49.1403 30.8724ZM56.8273 27.9518C56.8273 25.8796 55.1474 24.1997 53.0752 24.1997C51.0029 24.1997 49.323 25.8796 49.323 27.9518C49.323 30.0241 51.0029 31.704 53.0752 31.704C55.1474 31.704 56.8273 30.0241 56.8273 27.9518ZM48.1549 27.9518C48.1549 25.8796 46.475 24.1997 44.4027 24.1997C42.3304 24.1997 40.6505 25.8796 40.6505 27.9518C40.6505 30.0241 42.3304 31.704 44.4027 31.704C46.475 31.704 48.1549 30.0241 48.1549 27.9518Z" fill="url(#paint2_linear)" stroke="url(#paint3_linear)"/>
<path d="M17.8018 25.2853V24.1172H18.9699V25.2853H17.8018Z" fill="url(#paint4_linear)" stroke="url(#paint5_linear)"/>
<path d="M22.1377 25.2853V24.1172H34.1464V25.2853H22.1377Z" fill="url(#paint6_linear)" stroke="url(#paint7_linear)"/>
<path d="M17.8018 29.6212V28.4531H34.1467V29.6212H17.8018Z" fill="url(#paint8_linear)" stroke="url(#paint9_linear)"/>
<path d="M56.3278 44.7133H56.8278V44.2133V39.8771V39.3771H56.3278H19.4699H18.9699V39.8771V44.2133V44.7133H19.4699H56.3278ZM18.3858 38.209H57.4119C57.7345 38.209 57.996 38.4705 57.996 38.793V45.2974C57.996 45.6199 57.7344 45.8814 57.4119 45.8814H18.3858C18.0633 45.8814 17.8018 45.6199 17.8018 45.2974V38.793C17.8018 38.4705 18.0633 38.209 18.3858 38.209Z" fill="url(#paint10_linear)" stroke="url(#paint11_linear)"/>
<defs>
<linearGradient id="paint0_linear" x1="-12.1367" y1="-2.78038e-07" x2="73.3983" y2="31.9123" gradientUnits="userSpaceOnUse">
<stop stop-color="#4BD8B5"/>
<stop offset="1" stop-color="#49D6DF"/>
</linearGradient>
<linearGradient id="paint1_linear" x1="-12.1367" y1="-2.78038e-07" x2="73.3983" y2="31.9123" gradientUnits="userSpaceOnUse">
<stop stop-color="#4BD8B5"/>
<stop offset="1" stop-color="#49D6DF"/>
</linearGradient>
<linearGradient id="paint2_linear" x1="35.3089" y1="22.5312" x2="57.8516" y2="34.8636" gradientUnits="userSpaceOnUse">
<stop stop-color="#4BD8B5"/>
<stop offset="1" stop-color="#49D6DF"/>
</linearGradient>
<linearGradient id="paint3_linear" x1="35.3089" y1="22.5312" x2="57.8516" y2="34.8636" gradientUnits="userSpaceOnUse">
<stop stop-color="#4BD8B5"/>
<stop offset="1" stop-color="#49D6DF"/>
</linearGradient>
<linearGradient id="paint4_linear" x1="16.8969" y1="23.6172" x2="19.8729" y2="24.5206" gradientUnits="userSpaceOnUse">
<stop stop-color="#4BD8B5"/>
<stop offset="1" stop-color="#49D6DF"/>
</linearGradient>
<linearGradient id="paint5_linear" x1="16.8969" y1="23.6172" x2="19.8729" y2="24.5206" gradientUnits="userSpaceOnUse">
<stop stop-color="#4BD8B5"/>
<stop offset="1" stop-color="#49D6DF"/>
</linearGradient>
<linearGradient id="paint6_linear" x1="19.2087" y1="23.6172" x2="23.7257" y2="31.8442" gradientUnits="userSpaceOnUse">
<stop stop-color="#4BD8B5"/>
<stop offset="1" stop-color="#49D6DF"/>
</linearGradient>
<linearGradient id="paint7_linear" x1="19.2087" y1="23.6172" x2="23.7257" y2="31.8442" gradientUnits="userSpaceOnUse">
<stop stop-color="#4BD8B5"/>
<stop offset="1" stop-color="#49D6DF"/>
</linearGradient>
<linearGradient id="paint8_linear" x1="14.0631" y1="27.9531" x2="17.8329" y2="37.1079" gradientUnits="userSpaceOnUse">
<stop stop-color="#4BD8B5"/>
<stop offset="1" stop-color="#49D6DF"/>
</linearGradient>
<linearGradient id="paint9_linear" x1="14.0631" y1="27.9531" x2="17.8329" y2="37.1079" gradientUnits="userSpaceOnUse">
<stop stop-color="#4BD8B5"/>
<stop offset="1" stop-color="#49D6DF"/>
</linearGradient>
<linearGradient id="paint10_linear" x1="9.61003" y1="37.709" x2="29.666" y2="66.6278" gradientUnits="userSpaceOnUse">
<stop stop-color="#4BD8B5"/>
<stop offset="1" stop-color="#49D6DF"/>
</linearGradient>
<linearGradient id="paint11_linear" x1="9.61003" y1="37.709" x2="29.666" y2="66.6278" gradientUnits="userSpaceOnUse">
<stop stop-color="#4BD8B5"/>
<stop offset="1" stop-color="#49D6DF"/>
</linearGradient>
</defs>
</svg>
